<svg width="85" height="83" viewBox="0 0 85 83" fill="none" xmlns="http://www.w3.org/2000/svg">
<rect y="83" width="83" height="85" transform="rotate(-90 0 83)" fill="black"/>
<g clip-path="url(#clip0_194_73)">
<path d="M42.4014 69.9031C37.8342 69.9031 33.2502 70.1202 28.693 69.8563C20.6569 69.3921 14.1609 62.4616 14.0739 54.3922C13.9835 45.8285 13.9701 37.2582 14.0739 28.6945C14.1777 20.2243 21.2931 13.207 29.8985 13.0901C38.3164 12.9766 46.741 12.9632 55.1589 13.0901C59.365 13.1668 63.3742 14.8817 66.3294 17.8682C69.2846 20.8546 70.9514 24.8757 70.9734 29.0719C71.027 37.4152 71.027 45.7584 70.9734 54.1017C70.9132 62.4516 64.4675 69.3988 56.1266 69.8731C51.5694 70.1336 46.9888 69.9198 42.4182 69.9198L42.4014 69.9031ZM19.0731 41.5133C19.0731 45.7384 19.0161 49.9668 19.0731 54.2052C19.1735 60.1571 23.7608 64.9666 29.7478 65.0735C38.2226 65.2238 46.7042 65.2104 55.1957 65.0735C60.965 64.9833 65.8939 60.1938 65.9408 54.7697C66.0189 45.9855 66.0189 37.2003 65.9408 28.4139C65.8972 23.1635 61.0487 18.1803 55.7683 18.1068C46.962 17.9799 38.1534 17.9799 29.3426 18.1068C24.1057 18.1702 19.2338 23.0332 19.1066 28.1801C18.9894 32.6256 19.0731 37.0778 19.0731 41.5267V41.5133Z" fill="white"/>
<path d="M42.6186 27.0212C44.5292 27.0166 46.4217 27.3913 48.1857 28.1236C49.9496 28.8559 51.5499 29.931 52.8931 31.2864C54.2363 32.6418 55.2956 34.2502 56.0093 36.0181C56.7231 37.786 57.0769 39.6778 57.0503 41.5835C56.99 49.8432 50.5275 56.1926 42.2335 56.1358C34.3748 56.0857 27.9224 49.4859 27.9526 41.53C27.938 39.6105 28.3084 37.7074 29.0418 35.9327C29.7752 34.158 30.8569 32.5475 32.2233 31.1957C33.5896 29.844 35.2132 28.7783 36.9983 28.0614C38.7835 27.3446 40.6944 26.9909 42.6186 27.0212ZM42.5483 51.1692C43.8182 51.167 45.0752 50.9152 46.2474 50.4281C47.4197 49.9411 48.4842 49.2283 49.3801 48.3306C50.276 47.4329 50.9857 46.3679 51.4688 45.1964C51.9518 44.0249 52.1986 42.77 52.1951 41.5033C52.1616 36.2529 47.6948 31.8174 42.4679 31.8642C39.9043 31.9087 37.46 32.9524 35.6583 34.7721C33.8566 36.5918 32.8406 39.0427 32.8278 41.6002C32.8282 42.8679 33.0807 44.1229 33.5708 45.2926C34.0609 46.4623 34.7788 47.5233 35.6829 48.4142C36.587 49.3052 37.6593 50.0084 38.8378 50.483C40.0163 50.9576 41.2775 51.1942 42.5483 51.1792V51.1692Z" fill="white"/>
<path d="M57.868 29.5229C56.9639 29.5255 56.0959 29.1698 55.4547 28.5341C54.8136 27.8983 54.4519 27.0345 54.4492 26.1328C54.4466 25.231 54.8031 24.3651 55.4405 23.7256C56.0779 23.0861 56.9438 22.7253 57.8479 22.7227C58.7519 22.72 59.62 23.0757 60.2611 23.7115C60.9023 24.3472 61.2639 25.211 61.2666 26.1128C61.2693 27.0145 60.9127 27.8804 60.2753 28.5199C59.638 29.1594 58.772 29.5202 57.868 29.5229Z" fill="white"/>
</g>
<defs>
<clipPath id="clip0_194_73">
<rect width="57" height="57" fill="white" transform="translate(14 13)"/>
</clipPath>
</defs>
</svg>
