<svg width="86" height="84" viewBox="0 0 86 84" fill="none" xmlns="http://www.w3.org/2000/svg">
<rect y="84" width="84" height="86" transform="rotate(-90 0 84)" fill="black"/>
<g clip-path="url(#clip0_194_74)">
<path d="M13 72.0016C13.2572 71.0392 13.4729 70.1974 13.7066 69.3609C14.8128 65.3815 15.9439 61.4049 17.0253 57.4174C17.1179 57.079 16.999 56.6134 16.822 56.2886C13.9085 50.9395 12.682 45.2425 13.3969 39.2342C14.5128 29.8502 19.1879 22.5277 27.356 17.5224C35.289 12.6619 43.8704 11.7401 52.705 14.68C61.6225 17.6496 67.8312 23.6132 71.0765 32.2757C74.2362 40.7122 73.4867 48.9755 68.972 56.8056C65.5233 62.7841 60.4444 67.0437 53.8997 69.5477C47.0577 72.1654 40.137 72.21 33.2037 69.8982C31.879 69.457 30.6318 68.7978 29.332 68.2821C28.9839 68.1344 28.5988 68.0915 28.2257 68.159C23.4068 69.369 18.5961 70.6102 13.7826 71.8419C13.5725 71.8865 13.3568 71.9258 13 72.0016ZM20.1614 65.0066C20.292 65.0187 20.4235 65.0187 20.5541 65.0066C23.339 64.2933 26.1198 63.5624 28.9116 62.8748C29.2761 62.8048 29.654 62.8488 29.9915 63.0007C31.3494 63.6125 32.6409 64.3799 34.0306 64.9078C40.3402 67.3049 46.7148 67.3441 52.8599 64.5911C62.2102 60.41 67.4302 53.1687 67.7938 43.0701C68.1381 33.6848 63.9456 26.3189 55.754 21.5085C47.6482 16.7468 39.1344 16.6967 30.8876 21.2283C23.1924 25.4567 19.0192 32.1201 18.3195 40.7447C17.8853 46.1101 19.3013 51.0694 22.2867 55.5902C22.4121 55.7616 22.4938 55.9599 22.5251 56.1684C22.5563 56.377 22.5362 56.5899 22.4665 56.7894C22.107 57.9778 21.7862 59.1783 21.4515 60.3735L20.1614 65.0066Z" fill="white"/>
<path d="M51.1359 56.3465C48.5764 56.3749 46.5727 55.5154 44.5691 54.7412C39.4819 52.7786 35.6142 49.296 32.2956 45.1583C30.8727 43.3825 29.5093 41.5633 28.6769 39.4275C27.2803 35.8407 27.6716 32.576 30.4966 29.7444C31.1451 29.0947 31.9056 28.7482 32.839 28.7875C32.977 28.8003 33.1159 28.8003 33.2538 28.7875C34.6076 28.602 35.328 29.2463 35.7829 30.4482C36.4328 32.1591 37.1906 33.832 37.9221 35.5104C38.1599 36.0518 38.1779 36.581 37.8322 37.0548C37.2791 37.8222 36.6997 38.5856 36.0678 39.2935C35.5893 39.8349 35.4953 40.2978 35.877 40.9299C38.3134 44.9512 41.722 47.8505 46.1786 49.5559C46.7318 49.7684 47.2116 49.6804 47.5988 49.2067C48.3455 48.2917 49.1198 47.3997 49.843 46.4631C50.2661 45.9136 50.7542 45.697 51.3931 45.9907C53.5184 46.9666 55.641 47.9506 57.7428 48.9685C57.964 49.0767 58.1576 49.4706 58.1576 49.74C58.2655 51.9949 57.5298 53.8452 55.4488 55.058C54.0148 55.9039 52.5187 56.4548 51.1359 56.3465Z" fill="white"/>
</g>
<defs>
<clipPath id="clip0_194_74">
<rect width="60" height="59" fill="white" transform="translate(13 13)"/>
</clipPath>
</defs>
</svg>
