<svg width="529" height="622" viewBox="0 0 529 622" fill="none" xmlns="http://www.w3.org/2000/svg">
<path d="M528 355.703V34.5392V1H156L271.545 34.5392L1 76.7173H435.564L388.218 246.446L486.291 175.81L528 355.703Z" fill="black"/>
<path d="M46.0909 621H528V521.907L406.818 453.812L435.564 539.693L59.0545 521.907L309.873 567.134L46.0909 621Z" fill="black"/>
<path d="M528 355.703V34.5392V1H156L271.545 34.5392L1 76.7173H435.564L388.218 246.446L486.291 175.81L528 355.703Z" stroke="black"/>
<path d="M46.0909 621H528V521.907L406.818 453.812L435.564 539.693L59.0545 521.907L309.873 567.134L46.0909 621Z" stroke="black"/>
</svg>
