<svg width="84" height="84" viewBox="0 0 84 84" fill="none" xmlns="http://www.w3.org/2000/svg">
<rect y="84" width="84" height="84" transform="rotate(-90 0 84)" fill="black"/>
<g clip-path="url(#clip0_194_75)">
<path d="M32.2663 27.7344C35.0268 24.8464 43.0498 23.9368 45.8976 26.5281C46.6943 27.2526 46.9856 28.8097 47.0498 30.0062C47.1832 32.9187 46.9708 35.8461 47.0498 38.7636C47.0828 39.9109 47.5272 41.0337 48.0145 43.189C49.7906 41.4467 51.2918 40.437 52.1511 39.0357C54.0128 36.0083 55.3856 32.6778 57.2951 29.6849C58.0128 28.5589 59.5996 27.5099 60.905 27.3312C63.5717 26.9706 66.3256 27.1526 69.04 27.2476C71.8383 27.3443 72.7239 28.513 71.4103 30.9535C69.677 34.1677 67.6029 37.236 65.3972 40.1584C61.5601 45.2394 61.5206 45.4214 66.0441 50.0517C67.7807 51.8284 69.5503 53.6396 70.9198 55.6884C72.8474 58.5747 71.9075 60.4154 68.4885 60.7694C62.5758 61.3791 56.9198 61.148 53.1799 55.4392C52.7733 54.818 52.1527 54.3247 51.5881 53.8198C49.4284 51.8825 48.2959 52.1988 47.5223 54.9278C47.0136 56.7111 46.7585 59.8679 45.9354 60.0236C43.0449 60.5678 39.8778 60.4793 36.9659 59.8925C32.31 58.953 28.2183 56.2133 25.5881 52.2742C21.119 45.6672 16.9692 38.8242 13.0663 31.8681C11.0367 28.2507 11.8531 27.1657 15.9107 27.2001C25.2276 27.2804 23.221 25.6496 27.4959 34.23C28.7848 36.818 30.184 39.3946 31.8877 41.7188C33.142 43.4267 34.8819 42.8825 35.0646 40.8861C35.357 37.5578 35.3195 34.2089 34.9527 30.8879C34.8375 29.8226 33.3099 28.9031 32.2663 27.7344Z" fill="white"/>
</g>
<defs>
<clipPath id="clip0_194_75">
<rect width="60" height="36" fill="white" transform="translate(12 25)"/>
</clipPath>
</defs>
</svg>
