<svg width="83" height="84" viewBox="0 0 83 84" fill="none" xmlns="http://www.w3.org/2000/svg">
<rect y="84" width="84" height="83" transform="rotate(-90 0 84)" fill="black"/>
<path d="M43.6344 61.5241C41.6527 63.4131 39.6391 65.1536 37.8282 67.0909C34.6512 70.5126 31.1433 69.9077 29.6704 64.8196C28.3398 60.2215 26.9559 55.6419 25.6609 51.0326C25.3336 49.8636 24.807 49.177 23.6401 48.8059C20.3172 47.7482 17.0334 46.5495 13.739 45.399C13.344 45.2691 12.9557 45.118 12.5757 44.9462C10.5549 43.9962 9.01793 42.5191 9.00014 40.0995C8.98236 37.6798 10.6118 36.2584 12.6468 35.364L42.0192 22.4453C49.8461 19.0051 57.6731 15.5463 65.5249 12.1431C66.763 11.6087 68.1007 11.0854 69.4135 11.0075C72.3308 10.8331 74.4903 13.7315 73.9033 16.9454C72.16 26.5091 70.3456 36.0617 68.5668 45.618C67.2397 52.6692 65.9269 59.765 64.5465 66.8274C63.6215 71.5554 58.8542 73.4518 55.0866 70.5682C51.7531 68.0075 48.5049 65.3207 45.214 62.6968C44.6981 62.3257 44.1752 61.9398 43.6344 61.5241ZM43.3853 54.7438C48.1527 58.5477 52.7955 62.2738 57.4632 65.9701C59.025 67.2059 59.4519 67.0129 59.8362 64.994C62.1842 52.6061 64.5276 40.2145 66.8662 27.8191C67.5777 24.1079 68.2217 20.3634 68.9617 16.2736L14.4968 40.1922C19.1218 41.8177 23.327 43.228 27.4788 44.7867C28.0062 45.0276 28.5843 45.1224 29.1571 45.0619C29.7299 45.0014 30.278 44.7877 30.7484 44.4415C40.0245 38.3824 41.7253 36.2419 51.0583 30.2718C51.7236 29.8413 57.0719 25.7674 58.3229 27.8191C59.5739 29.8709 55.0616 33.7284 54.4995 34.2814C47.1172 41.5293 45.3231 42.7014 37.5685 49.5295C37.0669 50.0157 36.4372 50.6058 36.3233 51.2367C35.6438 55.0407 35.0959 58.8706 34.4164 63.2275L43.3853 54.7438Z" fill="white"/>
</svg>
