<svg width="34" height="37" viewBox="0 0 34 37" fill="none" xmlns="http://www.w3.org/2000/svg">
<path d="M16.9369 36.1452C14.2132 36.1452 11.4795 36.2813 8.76175 36.1159C3.9693 35.825 0.0954013 31.4823 0.0434831 26.4259C-0.010432 21.0597 -0.0184194 15.6893 0.0434831 10.3232C0.105386 5.01562 4.3487 0.61845 9.48062 0.545199C14.5007 0.474041 19.5248 0.465669 24.5449 0.545199C27.0533 0.593259 29.4442 1.66783 31.2065 3.5392C32.9689 5.41058 33.9629 7.93028 33.976 10.5597C34.008 15.7877 34.008 21.0157 33.976 26.2438C33.9401 31.476 30.0961 35.8292 25.122 36.1264C22.4043 36.2897 19.6726 36.1557 16.9469 36.1557L16.9369 36.1452ZM3.02479 18.3557C3.02479 21.0032 2.99084 23.6528 3.02479 26.3087C3.08469 30.0382 5.82038 33.052 9.39076 33.1189C14.4448 33.2131 19.5028 33.2047 24.5669 33.1189C28.0074 33.0624 30.9468 30.0612 30.9748 26.6624C31.0214 21.1581 31.0214 15.6531 30.9748 10.1474C30.9488 6.85736 28.0574 3.73477 24.9083 3.68872C19.6566 3.60919 14.4035 3.60919 9.14914 3.68872C6.02606 3.72849 3.12064 6.77573 3.04476 10.0009C2.97487 12.7865 3.02479 15.5763 3.02479 18.3641V18.3557Z" fill="white"/>
<path d="M17.0722 8.89423C18.254 8.89123 19.4246 9.13462 20.5158 9.6102C21.6069 10.0858 22.5968 10.784 23.4276 11.6643C24.2585 12.5445 24.9138 13.5891 25.3553 14.7373C25.7967 15.8854 26.0156 17.1141 25.9991 18.3517C25.9619 23.7161 21.9644 27.8396 16.834 27.8028C11.9728 27.7702 7.98161 23.484 8.00025 18.317C7.99127 17.0704 8.22034 15.8344 8.67401 14.6818C9.12767 13.5292 9.79677 12.4833 10.642 11.6054C11.4872 10.7275 12.4914 10.0354 13.5957 9.56982C14.6999 9.10423 15.8819 8.87454 17.0722 8.89423ZM17.0287 24.5772C17.8142 24.5758 18.5917 24.4122 19.3168 24.0959C20.042 23.7796 20.7004 23.3167 21.2546 22.7337C21.8088 22.1507 22.2478 21.459 22.5466 20.6982C22.8454 19.9374 22.998 19.1223 22.9959 18.2997C22.9752 14.8898 20.2121 12.0091 16.979 12.0395C15.3932 12.0684 13.8813 12.7463 12.7668 13.9281C11.6523 15.1098 11.0238 16.7016 11.0159 18.3626C11.0162 19.1859 11.1724 20.001 11.4755 20.7606C11.7787 21.5203 12.2227 22.2094 12.782 22.788C13.3412 23.3666 14.0045 23.8233 14.7335 24.1315C15.4625 24.4398 16.2426 24.5935 17.0287 24.5837V24.5772Z" fill="white"/>
<path d="M26.0059 10.9941C25.4755 10.9957 24.9661 10.7759 24.59 10.383C24.2138 9.99018 24.0016 9.45641 24 8.89916C23.9984 8.34191 24.2077 7.80684 24.5816 7.41164C24.9556 7.01645 25.4637 6.79352 25.9941 6.79188C26.5245 6.79024 27.0339 7.01003 27.41 7.4029C27.7862 7.79577 27.9984 8.32954 28 8.88679C28.0016 9.44403 27.7923 9.97911 27.4184 10.3743C27.0444 10.7695 26.5363 10.9924 26.0059 10.9941Z" fill="white"/>
</svg>
