<svg width="39" height="38" viewBox="0 0 39 38" fill="none" xmlns="http://www.w3.org/2000/svg">
<path d="M20.7806 31.028C19.5916 32.1679 18.3834 33.2182 17.2969 34.3872C15.3907 36.4521 13.286 36.087 12.4022 33.0167C11.6039 30.2419 10.7735 27.4784 9.99652 24.6969C9.80013 23.9915 9.48421 23.5771 8.78406 23.3532C6.79032 22.7149 4.82006 21.9916 2.8434 21.2973C2.60639 21.2189 2.37341 21.1278 2.14539 21.0241C0.932926 20.4508 0.0107597 19.5595 8.65629e-05 18.0993C-0.0105865 16.6392 0.96707 15.7814 2.18807 15.2417L19.8115 7.44597C24.5077 5.36995 29.2038 3.28274 33.9149 1.22911C34.6578 0.906626 35.4604 0.590856 36.2481 0.543826C37.9985 0.43857 39.2942 2.18762 38.942 4.12704C37.896 9.89824 36.8074 15.6627 35.7401 21.4295C34.9438 25.6845 34.1562 29.9664 33.3279 34.2282C32.7729 37.0814 29.9125 38.2258 27.652 36.4857C25.6518 34.9404 23.7029 33.319 21.7284 31.7357C21.4189 31.5117 21.1051 31.2788 20.7806 31.028ZM20.6312 26.9364C23.4916 29.2319 26.2773 31.4804 29.0779 33.7109C30.015 34.4567 30.2712 34.3402 30.5017 33.1219C31.9105 25.6464 33.3165 18.1687 34.7197 10.6888C35.1466 8.44927 35.533 6.18961 35.977 3.72167L3.29808 18.1553C6.07309 19.1362 8.59621 19.9872 11.0873 20.9278C11.4037 21.0732 11.7506 21.1304 12.0942 21.0939C12.4379 21.0574 12.7668 20.9285 13.049 20.7195C18.6147 17.0632 19.6352 15.7715 25.235 12.1689C25.6342 11.9091 28.8432 9.45064 29.5938 10.6888C30.3444 11.9269 27.6369 14.2547 27.2997 14.5884C22.8703 18.9622 21.7939 19.6695 17.1411 23.7899C16.8401 24.0833 16.4623 24.4394 16.394 24.8201C15.9863 27.1156 15.6575 29.4267 15.2498 32.0559L20.6312 26.9364Z" fill="white"/>
</svg>
