<svg width="36" height="36" viewBox="0 0 36 36" fill="none" xmlns="http://www.w3.org/2000/svg">
<g clip-path="url(#clip0_48_243)">
<path d="M0 36.001C0.154318 35.4138 0.283744 34.9001 0.423958 34.3897C1.08769 31.9616 1.76636 29.5352 2.41515 27.1021C2.47074 26.8957 2.39939 26.6116 2.29319 26.4134C0.545086 23.1495 -0.190823 19.6734 0.238113 16.0073C0.907653 10.2815 3.71275 5.8135 8.61358 2.7594C13.3734 -0.206323 18.5223 -0.768746 23.823 1.02506C29.1735 2.83703 32.8987 6.47585 34.8459 11.7615C36.7417 16.9092 36.292 21.9511 33.5832 26.7288C31.514 30.3767 28.4666 32.9758 24.5398 34.5037C20.4346 36.1009 16.2822 36.1282 12.1222 34.7176C11.3274 34.4483 10.5791 34.0461 9.79917 33.7315C9.59034 33.6413 9.35927 33.6152 9.13544 33.6563C6.24406 34.3946 3.35765 35.152 0.469588 35.9035C0.343479 35.9308 0.214054 35.9547 0 36.001ZM4.29683 31.7328C4.3752 31.7402 4.45409 31.7402 4.53246 31.7328C6.20341 31.2976 7.87186 30.8516 9.54696 30.4321C9.76569 30.3893 9.99238 30.4162 10.1949 30.5089C11.0097 30.8822 11.7846 31.3505 12.6184 31.6725C16.4041 33.1352 20.2289 33.1591 23.9159 31.4793C29.5261 28.9282 32.6581 24.5097 32.8763 18.3478C33.0829 12.6212 30.5673 8.12678 25.6524 5.19161C20.7889 2.28617 15.6807 2.25562 10.7325 5.02066C6.11546 7.6007 3.61153 11.6665 3.19172 16.929C2.9312 20.2028 3.78078 23.2288 5.57203 25.9872C5.64724 26.0918 5.69627 26.2128 5.71503 26.3401C5.73379 26.4673 5.72174 26.5972 5.67988 26.7189C5.46417 27.4441 5.27169 28.1766 5.07091 28.9059L4.29683 31.7328Z" fill="white"/>
<path d="M22.8814 26.4487C21.3457 26.466 20.1435 25.9416 18.9414 25.4692C15.889 24.2717 13.5684 22.1467 11.5772 19.622C10.7235 18.5384 9.90547 17.4284 9.40602 16.1252C8.56805 13.9366 8.80285 11.9446 10.4979 10.2169C10.887 9.82045 11.3433 9.60902 11.9033 9.63297C11.9861 9.64082 12.0694 9.64082 12.1522 9.63297C12.9644 9.51983 13.3967 9.91295 13.6697 10.6463C14.0596 11.6902 14.5143 12.711 14.9532 13.7351C15.0959 14.0655 15.1066 14.3884 14.8992 14.6774C14.5674 15.1457 14.2197 15.6115 13.8406 16.0434C13.5535 16.3738 13.4971 16.6562 13.7261 17.0419C15.188 19.4956 17.2331 21.2646 19.9071 22.3052C20.239 22.4349 20.5268 22.3812 20.7592 22.0922C21.2072 21.5339 21.6718 20.9896 22.1057 20.4181C22.3596 20.0828 22.6524 19.9507 23.0358 20.1299C24.3109 20.7253 25.5845 21.3257 26.8456 21.9468C26.9783 22.0129 27.0945 22.2532 27.0945 22.4176C27.1592 23.7935 26.7178 24.9224 25.4692 25.6624C24.6088 26.1786 23.7111 26.5147 22.8814 26.4487Z" fill="white"/>
</g>
<defs>
<clipPath id="clip0_48_243">
<rect width="36" height="36" fill="white"/>
</clipPath>
</defs>
</svg>
